<svg xmlns="http://www.w3.org/2000/svg" fill="none" viewBox="0 0 16 16">
  <g clip-path="url(#a)">
    <path fill="#111214" fill-rule="evenodd" d="M8 16A8 8 0 1 0 8 0a8 8 0 0 0 0 16Zm.27-6.756h-.888a.254.254 0 0 1-.257-.224v-.213c.007-.204.051-.384.133-.54.081-.163.18-.309.295-.438.115-.136.241-.258.377-.366.142-.116.271-.228.387-.336a2.04 2.04 0 0 0 .285-.326.64.64 0 0 0 .122-.377c0-.197-.064-.346-.193-.448-.13-.109-.313-.163-.55-.163-.272 0-.486.058-.642.173a.533.533 0 0 0-.179.216c-.082.175-.227.334-.42.334h-.85c-.2 0-.366-.163-.343-.363.063-.533.27-.958.621-1.276.428-.387 1.042-.58 1.843-.58.299 0 .587.033.866.101.285.068.536.18.753.336.217.156.39.36.52.611.135.244.203.547.203.906a1.75 1.75 0 0 1-.224.804 2.885 2.885 0 0 1-.305.438c-.13.15-.292.32-.49.51a5.928 5.928 0 0 0-.488.55.88.88 0 0 0-.159.303c-.058.196-.213.368-.417.368Zm.352.774a1.003 1.003 0 0 0-.692-.244c-.285 0-.523.081-.713.244-.183.163-.275.404-.275.723 0 .326.092.57.275.733.19.156.428.234.713.234.278 0 .509-.078.692-.234.19-.163.285-.407.285-.733 0-.319-.095-.56-.285-.723Z" clip-rule="evenodd"/>
  </g>
  <defs>
    <clipPath id="a">
      <rect width="16" height="16" fill="#fff" rx="8"/>
    </clipPath>
  </defs>
</svg>
